<svg xmlns="http://www.w3.org/2000/svg" viewBox="0 0 256.72 209.9"><defs><style>.cls-1{fill:#28356e;}.cls-2{fill:#cf9040;}.cls-3{fill:#3a479c;}</style></defs><title>Asset 2</title><g id="Layer_2" data-name="Layer 2"><g id="Layer_1-2" data-name="Layer 1"><path class="cls-1" d="M232.78,30.2s-2.64-6.29-14.75,2.4S207.41,50,210.15,51.66s13.55,1.9,25.93-6.78c0,0,.49,3.26-22.23,15.52s-30.48,32.13-32.37,43.19-.93,30,12.27,43.51,68.22,36.77,59.49,62.8c0,0,3-8.39.69-14.38-5.14-13.38-12.52-19.47-18.37-24.9s-52.37-41.41-51.84-60.81S198.39,79,209.35,73.17s48-19.73,47.31-63.23c0,0-1.7,11.38-3.07,13.81,0,0-3.74,14-23,20.46s-23.43,4.56-18-2.83,13.73-10.2,12.87-7.11,6.07,1.29,6.07,1.29S234.69,34.55,232.78,30.2Z"/><path class="cls-2" d="M174.63,114.43a3,3,0,1,1,2.75-3.22A2.84,2.84,0,0,1,174.63,114.43Zm-.42-5a2,2,0,1,0,2.28,1.81A2,2,0,0,0,174.21,109.48Z"/><path class="cls-2" d="M174.66,107.34l-3.37-.22.06-1,3.36.22a1.52,1.52,0,1,0,.2-3l-3.36-.22.07-1,3.36.22a2.47,2.47,0,1,1-.32,4.93Z"/><path class="cls-2" d="M176,99l-.23,1.15,1.93.38-.19,1-5.65-1.13.52-2.65A1.87,1.87,0,0,1,174.67,96a1.78,1.78,0,0,1,1.51,1.82l2.33-1.33-.24,1.18Zm-2.75-1.12-.33,1.71,2,.39.34-1.7a1,1,0,0,0-.78-1.27A1,1,0,0,0,173.27,97.83Z"/><path class="cls-2" d="M176,88.57l-.62,1.76L180,92l-.32.91-4.61-1.62L174.46,93l-.84-.3,1.56-4.44Z"/><path class="cls-2" d="M178.08,88.74a3,3,0,1,1,4-1.42A2.83,2.83,0,0,1,178.08,88.74Zm2.11-4.5A2,2,0,1,0,181.26,87,2,2,0,0,0,180.19,84.24Z"/><path class="cls-2" d="M182,75.54l4.88,3.08-.51.81-3.5-2.21,1.08,3-.11.17-3.2.34,3.48,2.2-.51.81-4.87-3.07.46-.74,3.53-.36-1.19-3.35Z"/><path class="cls-2" d="M185.21,76a3,3,0,1,1,4.22-.32A2.83,2.83,0,0,1,185.21,76Zm3.22-3.79a2,2,0,1,0,.32,2.89A2,2,0,0,0,188.43,72.25Z"/><path class="cls-2" d="M192.14,69.86l-.86.8,1.34,1.44-.7.66L188,68.53l2-1.84a1.86,1.86,0,0,1,2.79,0,1.78,1.78,0,0,1,.15,2.36l2.67.29-.88.82Zm-1.57-2.51-1.27,1.18L190.68,70,192,68.84a1,1,0,0,0,.12-1.49A1,1,0,0,0,190.57,67.35Z"/><path class="cls-2" d="M196.72,66l-.94.7L197,68.29l-.77.58-3.47-4.6,2.15-1.63a1.87,1.87,0,0,1,2.78.29,1.81,1.81,0,0,1-.08,2.37l2.62.56-1,.72Zm-1.31-2.66-1.38,1L195.25,66l1.38-1a1,1,0,1,0-1.22-1.62Z"/><path class="cls-2" d="M210.12,53.37l1.2,6-.92.54-1.53-1.39-1.78-1.58.49,2.32.43,2-.9.52-4.59-4,.89-.51,2.16,2,1.4,1.27-1-4.69.75-.44,3.56,3.2-.39-1.82-.64-2.85Z"/><polygon class="cls-2" points="231.6 5.27 239.5 10.81 234.75 19.84 225.63 14.38 231.6 5.27"/><polygon class="cls-2" points="227.38 145.84 235.28 151.38 230.53 160.41 221.41 154.94 227.38 145.84"/><path class="cls-3" d="M212.49,100.43s1.07-29.19,25.38-27.3,4.77,49.5-1.13,54.47-9.32,13.26-50.64,15.19c0,0,28.34-4.14,44-18.57s20.4-22.07,15-31S222.52,75.36,212.49,100.43Z"/><path class="cls-2" d="M237.14,109.48a96.32,96.32,0,0,1,10.65,20.71c13.89,36.89-29.4,74.6-48.83,55.66-35.41-34.52,11.43-85.39,16.9-91.8s43.25-33,27.5-68c-3.15-7-6.17-12.74-6.36-13.19,0,0,3.69,7.05,6.6,13.15,2.2,4.62,9.53,19.91,2.92,37.29-10.88,28.67-46.53,55-50.84,87.29-3.44,25.72,15,29.18,24,26,20.66-7.23,35.12-23.53,21.63-40.22S237.14,109.48,237.14,109.48Z"/><path class="cls-1" d="M232.54.21c-.17.38-.42.89-.75,1.54q-1.65,1.11-3.3,2.19a58.75,58.75,0,0,0-5.9,4.5.74.74,0,0,1-.31.21.05.05,0,0,1-.06-.06,2.54,2.54,0,0,1,.47-1.14,6,6,0,0,1,1-1.34,44,44,0,0,1,4.67-3.57c1.71-1.2,2.95-2,3.7-2.44a.48.48,0,0,1,.4-.08C232.57.06,232.59.12,232.54.21Z"/><path class="cls-3" d="M255.14,70.24c-2.25-.88-4.49-1.88-6.61-2.87v-.06l1.14-.83c2.47,1.15,5.06,2.3,7.05,3.09l0,.09Z"/><path class="cls-3" d="M253.57,71a7.9,7.9,0,0,1-1.41,2.68,3.74,3.74,0,0,1-.94.83c-.82.48-1.33.4-1.75,0a2,2,0,0,1-.73-1.25l-.05,0a2.8,2.8,0,0,1-2.31-.42,1.3,1.3,0,0,1-.4-1.3,3.31,3.31,0,0,1,.85-1.38,5.28,5.28,0,0,1,1.12-.94l1,.14v.08a5.19,5.19,0,0,0-1,.81c-.48.51-.61,1-.26,1.31a1,1,0,0,0,1.44-.08l1-1.18a7,7,0,0,1,.9.06l0,.08c-.75.88-1,1.61-.85,2.12a1.66,1.66,0,0,0,.37.66.78.78,0,0,0,.55.21,10.11,10.11,0,0,0,1-2.2,12.54,12.54,0,0,1,1.41-.28Z"/><path class="cls-3" d="M0,75.81A1.2,1.2,0,0,1,.33,75a1.06,1.06,0,0,1,.81-.36H4.08a1,1,0,0,1,.78.36,1.27,1.27,0,0,1,.3.84V111a5.33,5.33,0,0,0,.27,1.89,2.24,2.24,0,0,0,.78,1,3,3,0,0,0,1.26.48,10.91,10.91,0,0,0,1.71.12h1.5v5.16H7.86a15.17,15.17,0,0,1-3.36-.33A5.68,5.68,0,0,1,2,118.2a5.27,5.27,0,0,1-1.53-2.31A11.34,11.34,0,0,1,0,112.17Z"/><path class="cls-3" d="M10.32,119.73a4.38,4.38,0,0,1-1.44-.21q-.6-.21-.6-.63v-3.54q0-.36.6-.57a4.38,4.38,0,0,1,1.44-.21H23.58v5.16Z"/><path class="cls-3" d="M23.22,119.73a4.38,4.38,0,0,1-1.44-.21q-.6-.21-.6-.63v-3.54q0-.36.6-.57a4.38,4.38,0,0,1,1.44-.21H36.48v5.16Z"/><path class="cls-3" d="M36.12,119.73a4.38,4.38,0,0,1-1.44-.21q-.6-.21-.6-.63v-3.54q0-.36.6-.57a4.38,4.38,0,0,1,1.44-.21H49.38v5.16Z"/><path class="cls-3" d="M49,119.73a4.38,4.38,0,0,1-1.44-.21q-.6-.21-.6-.63v-3.54q0-.36.6-.57a4.38,4.38,0,0,1,1.44-.21H62.28v5.16Z"/><path class="cls-3" d="M59.88,115.35q0-.36.6-.57a4.38,4.38,0,0,1,1.44-.21h4.2a5.06,5.06,0,0,0,2.22-.3q.48-.3.48-1.86v-7.68q0-1.86,0-3.84t-.09-4.32a1.24,1.24,0,0,1,.27-.81.92.92,0,0,1,.75-.33H72.6a1.08,1.08,0,0,1,.84.33,1.16,1.16,0,0,1,.3.81q.06,2,.09,3.42t0,2.58v5.64q0,2.88,0,5.34a34.77,34.77,0,0,1-.21,3.84,2.93,2.93,0,0,1-.39,1,2.09,2.09,0,0,1-1,.72,5.59,5.59,0,0,1-1.32.27l-1.92.18q-1.08.09-2.22.12l-2.16,0h-2.7a4.38,4.38,0,0,1-1.44-.21q-.6-.21-.6-.63ZM68.4,83.19a1.2,1.2,0,0,1,.42-1,1.43,1.43,0,0,1,1-.36h2.64a1.32,1.32,0,0,1,.93.36,1.24,1.24,0,0,1,.39,1v3.24a1.17,1.17,0,0,1-.39.9,1.4,1.4,0,0,1-1,.36H69.78a1.4,1.4,0,0,1-1-.36,1.17,1.17,0,0,1-.39-.9Z"/><path class="cls-3" d="M85.08,70.29q0-.48.3-.57a3.06,3.06,0,0,1,.84-.09H90.9a3.72,3.72,0,0,1-.12-.9V68a3.8,3.8,0,0,1,1.14-2.85A4.2,4.2,0,0,1,95,64a4.39,4.39,0,0,1,3,1,3.47,3.47,0,0,1,1.11,2.73A3.66,3.66,0,0,1,98,70.59q-1.14,1-4.14,1H86.22q-1.14,0-1.14-.66Zm3.78,10.32a2.94,2.94,0,0,1-2.7-1.14,5.55,5.55,0,0,1-.72-3v-.9a6.88,6.88,0,0,1,.06-.84q.12-.84.78-.84H87q.84,0,.72.84-.06.6-.06,1v.9q0,1.92,1.56,1.92h.18a2.52,2.52,0,0,0,1-.27Q91,78,91,77V74.79a.91.91,0,0,1,.21-.57.68.68,0,0,1,.57-.27h.72a.68.68,0,0,1,.57.27.91.91,0,0,1,.21.57V77q0,1,.6,1.29a2.49,2.49,0,0,0,.9.27H95a1.51,1.51,0,0,0,1.11-.45,2.12,2.12,0,0,0,.45-1.53v-.9q0-.42-.06-1a.72.72,0,0,1,.72-.84h.72q.66,0,.78.84a8.41,8.41,0,0,1,.06.9v.9a5.07,5.07,0,0,1-.81,3,3.26,3.26,0,0,1-2.85,1.14h-.24a4.24,4.24,0,0,1-1.5-.27,2.26,2.26,0,0,1-1.14-.93H92a2.55,2.55,0,0,1-1.26.93,4.92,4.92,0,0,1-1.62.27Zm5.64-11a2.58,2.58,0,0,0,1.86-.54,1.87,1.87,0,0,0,.54-1.38,1.53,1.53,0,0,0-.57-1.32A2.12,2.12,0,0,0,95,66a2.23,2.23,0,0,0-1.44.48,2,2,0,0,0-.6,1.68,4.93,4.93,0,0,0,.18,1.5Z"/><path class="cls-3" d="M81.54,115.65a1,1,0,0,1,.36-.78,1.27,1.27,0,0,1,.84-.3H99.12l-.06-7.38q-.12-5.28-2.64-7.86T88.2,96.75l-1.89,0a20.08,20.08,0,0,0-2.13.15q-1.2.12-1.2-.84V93.63a1.12,1.12,0,0,1,.27-.78,1.38,1.38,0,0,1,.93-.36,27.16,27.16,0,0,1,3-.3q1.41-.06,2.07-.06a19.18,19.18,0,0,1,6.84,1.08,11.33,11.33,0,0,1,4.56,3.06,12.37,12.37,0,0,1,2.55,4.68,23.69,23.69,0,0,1,.93,5.94l.06,7.68h4v5.16H82.74a1.36,1.36,0,0,1-.84-.27.88.88,0,0,1-.36-.75Z"/><path class="cls-3" d="M107.76,119.73a4.38,4.38,0,0,1-1.44-.21q-.6-.21-.6-.63v-3.54q0-.36.6-.57a4.38,4.38,0,0,1,1.44-.21H121v5.16Z"/><path class="cls-3" d="M131.52,72.81q0-.66,1.08-.66h11.46q1.14,0,1.14.66v.72q0,.48-.3.57a3.06,3.06,0,0,1-.84.09H132.6q-1.08,0-1.08-.66Z"/><path class="cls-3" d="M118.62,115.35q0-.36.6-.57a4.38,4.38,0,0,1,1.44-.21h7.56a9.27,9.27,0,0,1-1.89-3.66,19.87,19.87,0,0,1-.69-5.58v-.66a13.6,13.6,0,0,1,1-5.55,10.55,10.55,0,0,1,2.94-3.93,12.36,12.36,0,0,1,4.44-2.31,19.6,19.6,0,0,1,5.55-.75q1.2,0,2.61.06a32.34,32.34,0,0,1,3.39.36,3.21,3.21,0,0,1,1,.33.86.86,0,0,1,.36.81v2.4a.88.88,0,0,1-.42.87,1.54,1.54,0,0,1-.9.15q-1.5-.12-2.7-.18t-2.76-.06a11.25,11.25,0,0,0-7,1.95q-2.55,2-2.55,6.39v.72a12.07,12.07,0,0,0,1.23,5.58,5.9,5.9,0,0,0,3,3.06h12.06a1.36,1.36,0,0,1,.84.27.88.88,0,0,1,.36.75v3.18a.81.81,0,0,1-.36.72,1.48,1.48,0,0,1-.84.24H120.66a4.38,4.38,0,0,1-1.44-.21q-.6-.21-.6-.63Zm17.16-34.62a1.2,1.2,0,0,1,.42-1,1.43,1.43,0,0,1,1-.36h2.64a1.32,1.32,0,0,1,.93.36,1.24,1.24,0,0,1,.39,1V84a1.17,1.17,0,0,1-.39.9,1.4,1.4,0,0,1-1,.36h-2.58a1.4,1.4,0,0,1-1-.36,1.17,1.17,0,0,1-.39-.9Z"/><path class="cls-2" d="M12.67,136.85c0,4.75-2.88,7.26-6.4,7.26s-6.2-2.82-6.2-7c0-4.38,2.72-7.24,6.4-7.24S12.67,132.76,12.67,136.85ZM2,137.08c0,2.94,1.59,5.58,4.39,5.58s4.42-2.6,4.42-5.73c0-2.74-1.43-5.6-4.4-5.6S2,134.05,2,137.08Z"/><path class="cls-2" d="M16.76,130.1v8.16c0,3.09,1.37,4.4,3.21,4.4,2,0,3.35-1.35,3.35-4.4V130.1h1.8v8c0,4.23-2.23,6-5.21,6S15,142.5,15,138.22V130.1Z"/><path class="cls-2" d="M28.21,130.29a18,18,0,0,1,3.41-.29,5.63,5.63,0,0,1,4,1.13,3.43,3.43,0,0,1,1.08,2.61,3.62,3.62,0,0,1-2.59,3.52v.06a3.45,3.45,0,0,1,2,2.78,22.84,22.84,0,0,0,1.06,3.79H35.34a18.56,18.56,0,0,1-.92-3.3c-.41-1.9-1.14-2.61-2.76-2.67H30v6H28.21ZM30,136.57h1.82c1.9,0,3.1-1,3.1-2.62,0-1.78-1.28-2.56-3.17-2.58a6.75,6.75,0,0,0-1.75.17Z"/><path class="cls-2" d="M45.32,131.62H41.13V130.1h10.2v1.52H47.12v12.27h-1.8Z"/><path class="cls-2" d="M64.09,136.85c0,4.75-2.88,7.26-6.4,7.26s-6.2-2.82-6.2-7c0-4.38,2.72-7.24,6.4-7.24S64.09,132.76,64.09,136.85Zm-10.69.23c0,2.94,1.59,5.58,4.39,5.58s4.42-2.6,4.42-5.73c0-2.74-1.43-5.6-4.4-5.6S53.4,134.05,53.4,137.08Z"/><path class="cls-2" d="M78,137.83c-.1-1.92-.22-4.23-.2-6h-.06c-.47,1.62-1,3.34-1.74,5.24l-2.43,6.68H72.23L70,137.24c-.66-1.94-1.21-3.72-1.6-5.36h0c0,1.72-.14,4-.26,6.1l-.37,5.91H66l1-13.79h2.27l2.35,6.67c.58,1.7,1,3.21,1.39,4.64h.07a48.2,48.2,0,0,1,1.45-4.64L77,130.1h2.27l.86,13.79H78.36Z"/><path class="cls-2" d="M94.62,136.85c0,4.75-2.89,7.26-6.4,7.26s-6.2-2.82-6.2-7c0-4.38,2.72-7.24,6.4-7.24S94.62,132.76,94.62,136.85Zm-10.7.23c0,2.94,1.6,5.58,4.4,5.58s4.41-2.6,4.41-5.73c0-2.74-1.43-5.6-4.39-5.6S83.92,134.05,83.92,137.08Z"/><path class="cls-2" d="M96.93,130.29a17.92,17.92,0,0,1,3.41-.29,5.63,5.63,0,0,1,4,1.13,3.43,3.43,0,0,1,1.08,2.61,3.61,3.61,0,0,1-2.6,3.52v.06a3.44,3.44,0,0,1,2,2.78,22.84,22.84,0,0,0,1.06,3.79h-1.84a18.56,18.56,0,0,1-.92-3.3c-.41-1.9-1.14-2.61-2.76-2.67H98.7v6H96.93Zm1.77,6.28h1.82c1.91,0,3.11-1,3.11-2.62,0-1.78-1.29-2.56-3.17-2.58a6.84,6.84,0,0,0-1.76.17Z"/><path class="cls-2" d="M107.93,130.29a17.92,17.92,0,0,1,3.41-.29,5.63,5.63,0,0,1,4,1.13,3.43,3.43,0,0,1,1.08,2.61,3.61,3.61,0,0,1-2.6,3.52v.06a3.44,3.44,0,0,1,2,2.78,22.84,22.84,0,0,0,1.06,3.79h-1.84a18.56,18.56,0,0,1-.92-3.3c-.41-1.9-1.14-2.61-2.76-2.67H109.7v6h-1.77Zm1.77,6.28h1.82c1.9,0,3.11-1,3.11-2.62,0-1.78-1.29-2.56-3.17-2.58a6.84,6.84,0,0,0-1.76.17Z"/><path class="cls-2" d="M130.76,136.85c0,4.75-2.88,7.26-6.4,7.26s-6.19-2.82-6.19-7c0-4.38,2.72-7.24,6.4-7.24S130.76,132.76,130.76,136.85Zm-10.69.23c0,2.94,1.59,5.58,4.4,5.58s4.41-2.6,4.41-5.73c0-2.74-1.43-5.6-4.39-5.6S120.07,134.05,120.07,137.08Z"/><path class="cls-2" d="M135.32,143.89l-3.49-13.79h1.88l1.63,7c.41,1.71.78,3.43,1,4.76h0c.22-1.37.65-3,1.12-4.78l1.84-7h1.86l1.68,7c.39,1.63.76,3.27,1,4.72h0c.29-1.51.67-3,1.1-4.76l1.82-7h1.82l-3.9,13.79h-1.86l-1.74-7.18a40.52,40.52,0,0,1-.9-4.5h0a44.57,44.57,0,0,1-1.06,4.5l-2,7.18Z"/><path class="cls-2" d="M201.29,64.55A3,3,0,1,1,204,61.33,2.83,2.83,0,0,1,201.29,64.55Zm-.42-5a2,2,0,1,0,2.28,1.81A2,2,0,0,0,200.87,59.59Z"/></g></g></svg>